<?xml version="1.0" standalone="no"?>
<!DOCTYPE svg PUBLIC "-//W3C//DTD SVG 20010904//EN"
 "http://www.w3.org/TR/2001/REC-SVG-20010904/DTD/svg10.dtd">
<svg version="1.0" xmlns="http://www.w3.org/2000/svg"
 width="700.000000pt" height="700.000000pt" viewBox="0 0 700.000000 700.000000"
 preserveAspectRatio="xMidYMid meet">
    <style>
        path { fill: #000000; }
        @media (prefers-color-scheme: dark) {
        path { fill: #ffffff; }
        }
    </style>

<g transform="translate(0.000000,700.000000) scale(0.100000,-0.100000)">
<path d="M1557 6359 c-61 -14 -109 -44 -159 -97 -93 -100 -137 -235 -142 -435
-6 -246 37 -405 137 -514 70 -76 162 -113 270 -107 135 6 228 67 296 194 57
108 76 199 76 380 0 145 -8 208 -38 302 -69 216 -240 324 -440 277z m184 -130
c109 -54 166 -210 167 -449 0 -234 -60 -386 -173 -439 -138 -65 -271 19 -324
204 -46 156 -30 448 29 565 65 127 188 176 301 119z"/>
<path d="M4145 6357 c-145 -48 -231 -160 -274 -357 -34 -161 -19 -429 30 -540
66 -145 142 -218 259 -248 65 -17 161 -7 228 23 160 72 244 258 245 540 1 151
-11 244 -43 327 -64 170 -175 259 -330 265 -44 1 -92 -3 -115 -10z m192 -128
c112 -54 172 -218 168 -460 -5 -297 -99 -451 -271 -446 -49 2 -69 8 -104 32
-68 47 -113 131 -138 255 -8 45 -9 291 0 350 16 109 80 225 147 263 66 39 125
41 198 6z"/>
<path d="M346 6325 c-18 -12 -77 -55 -132 -96 -54 -40 -101 -74 -103 -76 -2
-1 -5 -34 -6 -73 l-2 -70 66 47 c36 26 95 69 131 96 l65 49 3 -486 c2 -454 3
-486 20 -487 9 0 38 -1 65 -2 l47 -2 0 562 0 561 -61 0 c-45 -1 -68 -6 -93
-23z"/>
<path d="M823 6247 l-133 -99 0 -70 0 -69 44 33 c123 92 211 153 216 151 3 -2
5 -217 6 -478 0 -261 3 -478 7 -481 11 -12 108 -11 115 1 4 5 7 256 7 558 1
483 -1 548 -15 552 -8 2 -37 3 -65 3 -47 -2 -58 -8 -182 -101z"/>
<path d="M2253 6248 c-112 -83 -133 -103 -134 -126 0 -15 -1 -46 -2 -69 -2
-49 -11 -53 143 60 63 47 117 84 120 82 3 -2 5 -220 5 -484 0 -265 2 -481 5
-482 3 0 31 -2 63 -2 51 -2 57 0 58 18 3 66 3 1046 0 1072 l-3 32 -62 -1 -61
-1 -132 -99z"/>
<path d="M2837 6248 l-132 -99 -2 -65 c-1 -35 1 -64 5 -64 5 0 64 41 132 90
l125 91 5 -488 5 -487 55 1 c30 1 58 2 62 2 4 1 6 252 5 559 l-2 557 -63 1
-62 1 -133 -99z"/>
<path d="M3534 6331 c-11 -9 -31 -24 -45 -34 -13 -9 -63 -47 -111 -82 l-88
-66 0 -71 0 -71 23 20 c25 22 232 173 238 173 2 0 4 -218 3 -485 0 -543 -8
-485 66 -489 14 -1 34 1 44 5 19 6 20 21 20 558 1 482 -1 552 -14 555 -38 10
-117 3 -136 -13z"/>
<path d="M4849 6247 l-134 -102 0 -62 c0 -35 3 -63 7 -63 4 0 63 40 130 89 67
50 124 88 126 86 2 -2 4 -220 4 -484 0 -265 3 -481 6 -482 11 -1 74 -1 100 0
l22 1 0 559 0 558 -63 1 -63 0 -135 -101z"/>
<path d="M5436 6249 l-136 -101 0 -70 c0 -55 3 -68 13 -61 84 67 247 181 250
175 3 -4 5 -216 5 -472 0 -256 1 -472 1 -480 1 -14 48 -18 116 -11 7 1 10 184
9 554 -1 303 -2 554 -3 557 0 3 -28 7 -60 8 l-59 2 -136 -101z"/>
<path d="M6033 6258 c-65 -49 -124 -93 -132 -97 -15 -9 -24 -141 -10 -141 5 0
64 40 131 90 l123 89 5 -486 5 -487 63 0 62 -1 0 561 0 561 -64 0 -64 0 -119
-89z"/>
<path d="M6604 6248 l-134 -100 0 -69 c0 -66 1 -69 18 -57 10 7 66 48 124 91
59 44 110 78 115 78 4 -1 8 -214 9 -474 0 -260 3 -477 6 -483 5 -7 89 -11 118
-5 3 1 5 252 5 559 l0 557 -63 1 -64 2 -134 -100z"/>
<path d="M708 4602 l-28 -3 0 -185 c0 -140 3 -184 13 -185 6 0 149 -2 317 -2
l305 -2 0 -860 c1 -473 4 -865 7 -870 7 -12 422 -14 433 -3 4 4 7 395 7 870
l0 864 314 0 c173 -1 315 1 315 4 1 3 2 87 3 188 l1 182 -30 0 c-204 3 -1637
4 -1657 2z"/>
<path d="M3089 4602 c-40 -3 -48 -7 -57 -30 -6 -15 -48 -130 -93 -257 -108
-305 -157 -443 -214 -600 -26 -71 -62 -173 -80 -225 -18 -52 -52 -147 -75
-210 -22 -63 -58 -164 -80 -225 -61 -174 -135 -383 -169 -474 -17 -47 -28 -87
-25 -90 3 -3 106 -6 229 -6 l224 0 65 192 c36 105 68 203 72 217 l6 26 392 0
392 0 35 -112 c19 -62 50 -160 69 -218 l35 -105 238 0 c130 0 237 0 237 1 0 2
-104 298 -165 469 -31 88 -94 266 -140 395 -46 129 -122 343 -168 475 -150
423 -244 689 -257 728 -6 21 -18 41 -25 44 -15 5 -374 10 -446 5z m235 -599
c100 -309 219 -690 220 -703 1 -12 -37 -14 -261 -15 -145 0 -263 3 -263 6 0
10 60 201 70 224 5 11 51 149 102 307 51 159 94 288 95 288 1 0 18 -48 37
-107z"/>
<path d="M4457 4600 l-38 -5 119 -190 c66 -104 210 -336 321 -515 l203 -324
-18 -31 c-10 -16 -39 -64 -65 -105 -26 -41 -69 -109 -95 -150 -26 -41 -61 -97
-79 -125 -17 -27 -49 -77 -69 -110 -21 -33 -107 -170 -192 -304 -85 -134 -152
-246 -148 -250 3 -3 117 -6 252 -6 l247 0 48 78 c26 44 58 98 71 120 13 23 52
89 86 147 99 166 190 322 190 327 0 2 8 13 19 24 18 19 19 19 54 -48 20 -37
52 -95 70 -128 19 -33 89 -159 156 -280 68 -121 127 -224 132 -230 6 -6 113
-10 273 -10 l264 0 -22 37 c-11 21 -77 127 -145 235 -69 109 -212 336 -318
505 -106 169 -193 312 -193 318 0 7 80 137 178 291 97 154 226 357 286 452 59
94 123 194 141 222 19 27 32 51 30 53 -5 6 -494 4 -504 -2 -5 -3 -93 -156
-197 -340 -103 -184 -191 -333 -195 -330 -5 3 -25 37 -46 77 -22 40 -104 190
-183 335 l-144 262 -36 0 c-19 1 -120 2 -225 3 -104 1 -207 0 -228 -3z"/>
<path d="M1550 1807 c-188 -53 -292 -251 -294 -557 -1 -242 36 -374 138 -486
128 -143 369 -146 501 -7 64 68 112 180 134 312 15 94 6 326 -17 413 -58 215
-170 324 -345 334 -42 2 -91 -1 -117 -9z m191 -128 c108 -54 166 -209 167
-446 0 -190 -38 -322 -114 -398 -52 -53 -99 -69 -172 -62 -120 13 -198 114
-229 302 -9 53 -9 268 0 326 37 237 189 358 348 278z"/>
<path d="M2380 1802 c-146 -54 -224 -158 -265 -357 -17 -84 -23 -269 -10 -363
33 -257 170 -418 362 -426 114 -5 196 26 270 101 54 56 85 116 115 220 20 68
23 101 23 258 0 205 -8 250 -66 371 -43 91 -102 152 -179 187 -61 27 -188 31
-250 9z m230 -140 c44 -33 53 -45 84 -107 44 -90 57 -165 57 -320 0 -148 -12
-217 -55 -317 -79 -185 -299 -198 -401 -23 -108 186 -87 605 37 736 77 82 193
95 278 31z"/>
<path d="M4997 1809 c-56 -13 -94 -36 -149 -87 -102 -95 -156 -272 -152 -501
3 -224 50 -369 153 -471 94 -92 226 -120 355 -75 73 26 106 50 159 116 151
191 157 664 11 876 -83 121 -230 177 -377 142z m144 -113 c84 -14 163 -125
194 -272 18 -87 17 -279 -1 -378 -33 -175 -124 -276 -248 -276 -157 0 -254
160 -261 430 -6 240 47 406 154 472 36 23 87 38 111 33 8 -2 31 -6 51 -9z"/>
<path d="M6427 1810 c-137 -35 -243 -166 -284 -350 -23 -106 -23 -349 1 -453
51 -224 185 -351 371 -351 205 0 350 158 382 418 10 74 10 250 0 326 -22 183
-112 331 -235 387 -59 28 -173 38 -235 23z m190 -136 c103 -60 154 -192 159
-409 3 -188 -18 -292 -77 -386 -41 -65 -97 -101 -163 -107 -72 -6 -119 11
-168 61 -78 79 -109 184 -114 378 -3 160 18 281 64 363 69 122 192 163 299
100z"/>
<path d="M253 1708 c-65 -49 -125 -96 -133 -104 -10 -10 -15 -35 -15 -79 0
-36 0 -65 0 -65 0 0 59 43 130 95 l130 94 3 -484 c1 -267 6 -485 10 -486 4 -1
33 -2 65 -2 l57 -2 0 561 0 562 -64 -1 -65 -1 -118 -88z"/>
<path d="M823 1697 l-133 -100 0 -68 0 -69 83 60 c45 33 103 75 129 95 26 19
49 31 51 27 2 -4 3 -220 3 -480 -1 -283 3 -476 8 -480 12 -7 116 -9 117 -2 3
13 5 1096 2 1106 -2 6 -30 11 -66 11 l-62 0 -132 -100z"/>
<path d="M3174 1757 c-33 -23 -65 -47 -72 -54 -8 -7 -42 -34 -78 -59 l-64 -46
0 -69 0 -70 33 24 c17 13 66 48 107 79 41 30 87 63 102 72 l27 18 0 -444 c0
-243 0 -463 1 -488 l0 -45 53 1 c28 1 57 3 63 3 7 1 10 173 10 558 l-1 558
-61 2 c-57 1 -66 -2 -120 -40z"/>
<path d="M3679 1696 l-134 -101 0 -67 c0 -38 0 -68 0 -68 0 0 59 42 130 94 71
52 131 93 133 91 2 -2 4 -220 3 -484 0 -265 3 -481 7 -482 33 -5 115 -3 118 3
7 12 6 1100 -1 1107 -4 3 -33 6 -65 7 l-58 1 -133 -101z"/>
<path d="M4264 1696 l-134 -100 0 -68 0 -68 113 81 c61 45 120 89 130 97 9 8
18 13 19 11 1 -2 2 -218 3 -480 1 -261 4 -480 7 -485 7 -10 99 -10 115 -1 6 4
9 226 9 559 l-1 553 -64 1 -63 0 -134 -100z"/>
<path d="M5692 1697 l-132 -99 0 -70 0 -69 73 54 c165 121 186 137 189 137 2
0 3 -215 3 -477 -1 -263 2 -483 6 -488 6 -8 84 -12 119 -6 3 1 5 251 5 556 0
548 0 556 -20 560 -11 2 -40 3 -65 2 -41 -1 -58 -10 -178 -100z"/>
</g>
</svg>
